<?xml version="1.0" encoding="UTF-8" standalone="no"?>
<!-- Created with Inkscape (http://www.inkscape.org/) -->

<svg
   width="190.03958mm"
   height="62.70026mm"
   viewBox="2 2 197.035 65.008277"
   version="1.1"
   id="svg373"
   inkscape:version="1.2.2 (b0a8486541, 2022-12-01)"
   sodipodi:docname="evoc_logo_horizontal.svg"
   xmlns:inkscape="http://www.inkscape.org/namespaces/inkscape"
   xmlns:sodipodi="http://sodipodi.sourceforge.net/DTD/sodipodi-0.dtd"
   xmlns="http://www.w3.org/2000/svg"
   xmlns:svg="http://www.w3.org/2000/svg">
  <sodipodi:namedview
     id="namedview375"
     pagecolor="#ffffff"
     bordercolor="#000000"
     borderopacity="0.25"
     inkscape:showpageshadow="2"
     inkscape:pageopacity="0.0"
     inkscape:pagecheckerboard="0"
     inkscape:deskcolor="#d1d1d1"
     inkscape:document-units="mm"
     showgrid="false"
     inkscape:zoom="3.9672693"
     inkscape:cx="351.24916"
     inkscape:cy="34.154475"
     inkscape:window-width="3840"
     inkscape:window-height="2123"
     inkscape:window-x="0"
     inkscape:window-y="0"
     inkscape:window-maximized="1"
     inkscape:current-layer="layer1" />
  <defs
     id="defs370" />
  <g
     inkscape:label="Layer 1"
     inkscape:groupmode="layer"
     id="layer1"
     transform="translate(-5.0652796,-124.32419)">
    <g
       id="g755"
       transform="translate(2.696713,1.1754903)">
      <ellipse
         style="fill:#2b3e63;fill-opacity:1;stroke-width:0.286873"
         id="path343"
         cx="-28.977217"
         cy="171.24467"
         rx="16.956238"
         ry="28.317045"
         transform="rotate(-29.48468)" />
      <ellipse
         style="fill:#456195;stroke-width:0.323761"
         id="path120"
         cx="110.06858"
         cy="132.03746"
         rx="11.47765"
         ry="19.875679"
         transform="matrix(0.86823907,0.49614607,-0.55741146,0.83023639,0,0)" />
      <ellipse
         style="fill:#fcaf3e;stroke-width:0.286873"
         id="path230"
         cx="35.132099"
         cy="133.59846"
         rx="7.6328688"
         ry="7.2742777" />
    </g>
    <g
       id="g750"
       transform="translate(2.696713,-0.77014306)">
      <path
         inkscape:connector-curvature="0"
         id="path3773"
         style="font-style:normal;font-variant:normal;font-weight:normal;font-stretch:normal;font-size:70.5556px;line-height:1.25;font-family:'Optima LT DemiBold';-inkscape-font-specification:'Optima LT DemiBold, ';letter-spacing:0px;word-spacing:0px;fill:#2b3e63;fill-opacity:1;stroke:none;stroke-width:0.169865"
         d="m 96.564419,147.87618 v 10.64488 q 6.975801,0 9.784241,-0.31708 -0.22648,0.81535 -0.22648,1.63071 0,0.99654 0.22648,1.54011 -4.12207,-0.31709 -9.784241,-0.31709 v 12.27559 q 4.076761,0 10.826081,-0.31708 -0.22649,0.49827 -0.22649,1.49481 0,0.99655 0.22649,1.63071 -4.07677,-0.27178 -8.334723,-0.27178 -4.122064,0 -8.470609,0.27178 0.135894,-3.21611 0.226488,-5.66217 0.181189,-6.02455 0.181189,-10.23721 0,-9.33126 -0.407677,-15.17461 4.43914,0.27178 8.198828,0.27178 1.177728,0 3.714384,-0.0906 3.4426,-0.13589 4.62034,-0.18118 -0.22649,0.90594 -0.22649,1.44951 0,1.08714 0.22649,1.676 l -4.25796,-0.22649 q -1.72131,-0.0906 -6.296341,-0.0906 z" />
      <path
         inkscape:connector-curvature="0"
         id="path3775"
         style="font-style:normal;font-variant:normal;font-weight:normal;font-stretch:normal;font-size:70.5556px;line-height:1.25;font-family:'Optima LT DemiBold';-inkscape-font-specification:'Optima LT DemiBold, ';letter-spacing:0px;word-spacing:0px;fill:#2b3e63;fill-opacity:1;stroke:none;stroke-width:0.169865"
         d="m 125.28287,168.75827 1.7213,-4.25795 q 5.3451,-13.18154 7.24758,-19.43257 1.49482,0.27178 2.08368,0.27178 0.67946,0 2.17428,-0.27178 -2.35547,4.71093 -6.47753,14.40456 -3.53319,8.28942 -6.47752,16.66943 -1.08714,-0.27178 -1.676,-0.27178 -0.81535,0 -2.08368,0.27178 -1.8119,-5.11861 -2.31016,-6.43222 -0.95125,-2.53666 -3.08023,-7.65526 -1.81189,-4.39385 -4.16736,-10.19191 -1.26832,-2.94433 -2.94432,-6.7946 1.31362,0.27178 3.66908,0.27178 1.08714,0 3.35201,-0.27178 1.676,5.75276 5.84335,16.48823 0,0 3.12552,7.20229 z" />
      <path
         inkscape:connector-curvature="0"
         id="path3777"
         style="font-style:normal;font-variant:normal;font-weight:normal;font-stretch:normal;font-size:70.5556px;line-height:1.25;font-family:'Optima LT DemiBold';-inkscape-font-specification:'Optima LT DemiBold, ';letter-spacing:0px;word-spacing:0px;fill:#2b3e63;fill-opacity:1;stroke:none;stroke-width:0.142637"
         d="m 144.0592,162.79615 q 0,4.79261 2.05397,7.87359 2.35829,3.65152 6.92269,3.65152 4.48833,0 6.92267,-3.72759 2.05398,-3.15706 2.05398,-7.79752 0,-5.13496 -1.9779,-8.10182 -2.32024,-3.42331 -6.99875,-3.42331 -4.48834,0 -6.92269,3.80367 -2.05397,3.19508 -2.05397,7.72146 z m 9.09078,-13.465 q 5.85764,0 9.69934,3.08098 4.37422,3.49937 4.37422,9.92758 0,6.31408 -3.91778,10.11775 -3.91778,3.80368 -10.2699,3.80368 -6.16194,0 -10.0417,-3.38527 -4.14599,-3.57545 -4.14599,-9.62329 0,-6.88464 4.26011,-10.57421 3.8417,-3.34722 10.0417,-3.34722 z" />
      <path
         inkscape:connector-curvature="0"
         id="path3779"
         style="font-style:normal;font-variant:normal;font-weight:normal;font-stretch:normal;font-size:70.5556px;line-height:1.25;font-family:'Optima LT DemiBold';-inkscape-font-specification:'Optima LT DemiBold, ';letter-spacing:0px;word-spacing:0px;fill:#2b3e63;fill-opacity:1;stroke:none;stroke-width:0.169865"
         d="m 198.09996,146.79865 -1.35892,4.43914 h -0.45298 q -2.12897,-4.25795 -8.65179,-4.25795 -5.61687,0 -8.60651,3.53318 -2.98962,3.5332 -2.98962,10.01073 0,5.84336 2.76314,9.46715 3.12552,4.12206 8.19882,4.12206 6.06985,0 10.46369,-5.16391 l 0.49828,0.31709 -0.49828,4.48444 q -5.16389,2.85373 -11.46023,2.85373 -6.93049,0 -11.41494,-4.03146 -4.75622,-4.25796 -4.75622,-11.64143 0,-7.24758 4.30325,-11.59613 4.66563,-4.80151 13.36272,-4.80151 5.57158,0 10.59959,2.26487 z" />
      <path
         style="display:inline;fill:#7088b8;fill-opacity:1;stroke:none;stroke-width:0;stroke-linecap:round;stroke-miterlimit:4;stroke-dasharray:none;stroke-dashoffset:0;stroke-opacity:0.79023;enable-background:new"
         d="m 141.23074,144.97442 0.0119,2.24793 25.02528,-0.002 -1.44326,-2.2465 -1.23317,-1.88364 c 0,0 0.0123,1.06433 -0.29822,1.44606 -0.22924,0.28169 -1.00011,0.43226 -1.00011,0.43226 z"
         id="path4141"
         inkscape:connector-curvature="0"
         sodipodi:nodetypes="cccccscc" />
    </g>
    <g
       aria-label="EMBEDDING  VECTOR"
       id="text579"
       style="font-size:10.7597px;font-family:'Optima LT';-inkscape-font-specification:'Optima LT, Normal';fill:#7088b8;stroke-width:0.264583">
      <path
         d="m 95.886833,132.36987 q 0,-0.69938 -0.03228,-1.388 -0.02152,-0.69938 -0.0538,-1.388 0.484187,0.0215 0.957613,0.043 0.484187,0.0108 0.968373,0.0108 0.484187,0 0.957614,-0.0108 0.473427,-0.0215 0.957613,-0.043 -0.03228,0.1614 -0.03228,0.32279 0,0.1614 0.03228,0.32279 -0.34431,-0.0215 -0.634822,-0.043 -0.279752,-0.0323 -0.602543,-0.0538 -0.312032,-0.0215 -0.688621,-0.0323 -0.37659,-0.0108 -0.903815,-0.0108 -0.01076,0.34431 -0.03228,0.65634 -0.01076,0.31203 -0.01076,0.71014 0,0.41963 0,0.81773 0.01076,0.39811 0.01076,0.60255 0.946853,0 1.538637,-0.0323 0.602543,-0.0323 1.07597,-0.0753 -0.03228,0.1614 -0.03228,0.33355 0,0.1614 0.03228,0.32279 -0.279752,-0.0323 -0.656342,-0.043 -0.36583,-0.0215 -0.742419,-0.0323 -0.36583,-0.0108 -0.699381,-0.0108 -0.322791,-0.0108 -0.516465,-0.0108 0,0.0968 -0.01076,0.21519 0,0.1076 0,0.27975 0,0.1614 0,0.41963 0,0.25823 0,0.64558 0,0.6133 0,1.01141 0.01076,0.39811 0.02152,0.60255 0.35507,0 0.753179,0 0.408868,-0.0108 0.796217,-0.0215 0.398109,-0.0108 0.74242,-0.0323 0.35507,-0.0323 0.613303,-0.0861 -0.02152,0.0753 -0.03228,0.17216 0,0.0861 0,0.16139 0,0.17216 0.03228,0.31203 -0.484187,-0.0215 -0.968373,-0.043 -0.473427,-0.0108 -0.968373,-0.0108 -0.494947,0 -0.979133,0.0108 -0.484187,0.0215 -0.979133,0.043 0.03228,-0.71014 0.0538,-1.39876 0.03228,-0.69938 0.03228,-1.39876 z"
         style="fill:#2b3e63"
         id="path420" />
      <path
         d="m 101.82192,129.45399 q 0.74242,1.52788 1.4956,2.96968 0.76394,1.4418 1.59243,2.95892 0.1076,-0.20444 0.31204,-0.59179 0.20443,-0.38734 0.47342,-0.87153 0.26899,-0.49495 0.58103,-1.06521 0.31203,-0.58103 0.62406,-1.16205 0.32279,-0.59178 0.62406,-1.16205 0.31203,-0.58102 0.58102,-1.07597 h 0.13988 q 0.11836,1.03293 0.22595,2.00131 0.1076,0.95761 0.20444,1.8937 0.1076,0.92534 0.21519,1.83991 0.1076,0.90382 0.23672,1.82915 -0.12912,-0.0215 -0.25824,-0.043 -0.11835,-0.0108 -0.24747,-0.0108 -0.12912,0 -0.25823,0.0108 -0.11836,0.0215 -0.24748,0.043 -0.11835,-1.45256 -0.23671,-2.80828 -0.11836,-1.35572 -0.29051,-2.74372 h -0.0215 q -0.74242,1.35572 -1.46332,2.70068 -0.71014,1.3342 -1.35572,2.79752 h -0.0968 q -0.63482,-1.34496 -1.34496,-2.71144 -0.71014,-1.37724 -1.42028,-2.78676 h -0.0215 q -0.0753,0.6671 -0.17216,1.45256 -0.0861,0.7747 -0.16139,1.53863 -0.0753,0.75318 -0.12912,1.43104 -0.0538,0.67787 -0.0538,1.12977 -0.0968,-0.0215 -0.19367,-0.043 -0.0861,-0.0108 -0.18292,-0.0108 -0.0968,0 -0.19367,0.0108 -0.0861,0.0215 -0.18292,0.043 0.13988,-0.89305 0.29052,-1.86143 0.15063,-0.97913 0.27975,-1.95826 0.13987,-0.97913 0.25823,-1.92599 0.12912,-0.95761 0.2152,-1.81839 z"
         style="fill:#2b3e63"
         id="path422" />
      <path
         d="m 111.11413,134.3927 q 0,0.54874 0.0215,1.08673 0.0215,0.53798 0.043,1.08673 0.20444,0.0215 0.48419,0.043 0.27975,0.0108 0.57027,0.0108 0.34431,0 0.65634,-0.11835 0.32279,-0.11836 0.5595,-0.34431 0.23671,-0.23672 0.37659,-0.57027 0.13988,-0.33355 0.13988,-0.7747 0,-0.46266 -0.17216,-0.75318 -0.16139,-0.29051 -0.47343,-0.46266 -0.31203,-0.17216 -0.75317,-0.23672 -0.43039,-0.0645 -0.96838,-0.0645 h -0.48418 z m 0.58102,-1.4956 q 0.37659,0 0.74242,-0.0753 0.37659,-0.0753 0.6671,-0.24747 0.29051,-0.18292 0.46267,-0.47343 0.18291,-0.30127 0.18291,-0.75318 0,-0.43039 -0.16139,-0.69938 -0.1614,-0.26899 -0.40887,-0.40887 -0.24747,-0.15063 -0.57027,-0.19367 -0.31203,-0.0538 -0.6133,-0.0538 -0.27975,0 -0.47342,0.0215 -0.19368,0.0108 -0.34432,0.0323 -0.0215,0.51646 -0.043,1.02217 -0.0215,0.5057 -0.0215,1.02217 v 0.80698 z m -1.46332,-0.52723 q 0,-0.69938 -0.0323,-1.388 -0.0215,-0.69938 -0.0538,-1.388 0.27976,0.0215 0.57027,0.043 0.29051,0.0108 0.57026,0.0108 0.27975,0 0.57027,-0.0215 0.29051,-0.0323 0.57026,-0.0323 0.46267,0 0.87154,0.0753 0.40886,0.0646 0.7209,0.24747 0.31203,0.17216 0.49494,0.47343 0.18292,0.30127 0.18292,0.75318 0,0.79621 -0.50571,1.24812 -0.49495,0.45191 -1.30192,0.63482 v 0.0215 q 0.48418,0.0215 0.86077,0.13988 0.38735,0.1076 0.64558,0.33355 0.269,0.21519 0.40887,0.54874 0.15064,0.3228 0.15064,0.78546 0,0.60255 -0.24747,1.01141 -0.24748,0.40887 -0.64559,0.66711 -0.3981,0.25823 -0.88229,0.37659 -0.48419,0.10759 -0.94685,0.10759 -0.25824,0 -0.52723,-0.0323 -0.25823,-0.0215 -0.51647,-0.0215 -0.25823,0 -0.52722,0.0108 -0.25823,0.0215 -0.51647,0.043 0.0323,-0.71014 0.0538,-1.39876 0.0323,-0.69938 0.0323,-1.39876 z"
         style="fill:#2b3e63"
         id="path424" />
      <path
         d="m 116.13909,132.36987 q 0,-0.69938 -0.0323,-1.388 -0.0215,-0.69938 -0.0538,-1.388 0.48418,0.0215 0.95761,0.043 0.48419,0.0108 0.96837,0.0108 0.48419,0 0.95761,-0.0108 0.47343,-0.0215 0.95762,-0.043 -0.0323,0.1614 -0.0323,0.32279 0,0.1614 0.0323,0.32279 -0.34431,-0.0215 -0.63482,-0.043 -0.27976,-0.0323 -0.60255,-0.0538 -0.31203,-0.0215 -0.68862,-0.0323 -0.37659,-0.0108 -0.90381,-0.0108 -0.0108,0.34431 -0.0323,0.65634 -0.0108,0.31203 -0.0108,0.71014 0,0.41963 0,0.81773 0.0108,0.39811 0.0108,0.60255 0.94685,0 1.53864,-0.0323 0.60254,-0.0323 1.07597,-0.0753 -0.0323,0.1614 -0.0323,0.33355 0,0.1614 0.0323,0.32279 -0.27976,-0.0323 -0.65635,-0.043 -0.36583,-0.0215 -0.74242,-0.0323 -0.36583,-0.0108 -0.69938,-0.0108 -0.32279,-0.0108 -0.51646,-0.0108 0,0.0968 -0.0108,0.21519 0,0.1076 0,0.27975 0,0.1614 0,0.41963 0,0.25823 0,0.64558 0,0.6133 0,1.01141 0.0108,0.39811 0.0215,0.60255 0.35507,0 0.75318,0 0.40887,-0.0108 0.79621,-0.0215 0.39811,-0.0108 0.74242,-0.0323 0.35507,-0.0323 0.61331,-0.0861 -0.0215,0.0753 -0.0323,0.17216 0,0.0861 0,0.16139 0,0.17216 0.0323,0.31203 -0.48419,-0.0215 -0.96838,-0.043 -0.47342,-0.0108 -0.96837,-0.0108 -0.49495,0 -0.97913,0.0108 -0.48419,0.0215 -0.97913,0.043 0.0323,-0.71014 0.0538,-1.39876 0.0323,-0.69938 0.0323,-1.39876 z"
         style="fill:#2b3e63"
         id="path426" />
      <path
         d="m 120.85203,132.38063 q 0,-0.69938 -0.0323,-1.388 -0.0215,-0.69938 -0.0538,-1.39876 0.40887,0.0215 0.80698,0.043 0.40887,0.0108 0.81773,0.0108 0.40887,0 0.80698,-0.0215 0.40887,-0.0323 0.81774,-0.0323 0.94685,0 1.61395,0.24747 0.67787,0.24748 1.10825,0.71014 0.43039,0.45191 0.62407,1.11901 0.20443,0.65634 0.20443,1.48484 0,1.07597 -0.37659,1.81839 -0.36583,0.73166 -0.94685,1.19433 -0.57027,0.4519 -1.26965,0.65634 -0.68862,0.19367 -1.32344,0.19367 -0.36583,0 -0.7209,-0.0323 -0.35507,-0.0215 -0.7209,-0.0215 -0.36583,0 -0.7209,0.0108 -0.35507,0.0215 -0.7209,0.043 0.0323,-0.69938 0.0538,-1.388 0.0323,-0.69938 0.0323,-1.39876 z m 0.88229,1.85067 q 0,1.17281 0.0646,2.28106 0.22595,0.0538 0.6133,0.0861 0.38735,0.0215 0.79622,0.0215 0.59179,0 1.18357,-0.13987 0.59178,-0.13988 1.05445,-0.52723 0.47343,-0.38735 0.76394,-1.05445 0.30127,-0.67786 0.30127,-1.74307 0,-0.93609 -0.23671,-1.53864 -0.22596,-0.60254 -0.63483,-0.94685 -0.3981,-0.35507 -0.96837,-0.48419 -0.5595,-0.13987 -1.21585,-0.13987 -0.48418,0 -0.90381,0.0323 -0.41963,0.0323 -0.75318,0.0753 -0.0323,0.51647 -0.0538,1.08673 -0.0108,0.55951 -0.0108,1.14053 z"
         style="fill:#2b3e63"
         id="path428" />
      <path
         d="m 128.48947,132.38063 q 0,-0.69938 -0.0323,-1.388 -0.0215,-0.69938 -0.0538,-1.39876 0.40887,0.0215 0.80698,0.043 0.40887,0.0108 0.81773,0.0108 0.40887,0 0.80698,-0.0215 0.40887,-0.0323 0.81774,-0.0323 0.94685,0 1.61395,0.24747 0.67787,0.24748 1.10825,0.71014 0.43039,0.45191 0.62407,1.11901 0.20443,0.65634 0.20443,1.48484 0,1.07597 -0.37659,1.81839 -0.36583,0.73166 -0.94685,1.19433 -0.57027,0.4519 -1.26965,0.65634 -0.68862,0.19367 -1.32344,0.19367 -0.36583,0 -0.7209,-0.0323 -0.35507,-0.0215 -0.7209,-0.0215 -0.36583,0 -0.7209,0.0108 -0.35507,0.0215 -0.7209,0.043 0.0323,-0.69938 0.0538,-1.388 0.0323,-0.69938 0.0323,-1.39876 z m 0.88229,1.85067 q 0,1.17281 0.0646,2.28106 0.22595,0.0538 0.6133,0.0861 0.38735,0.0215 0.79622,0.0215 0.59178,0 1.18357,-0.13987 0.59178,-0.13988 1.05445,-0.52723 0.47343,-0.38735 0.76394,-1.05445 0.30127,-0.67786 0.30127,-1.74307 0,-0.93609 -0.23671,-1.53864 -0.22596,-0.60254 -0.63483,-0.94685 -0.39811,-0.35507 -0.96837,-0.48419 -0.5595,-0.13987 -1.21585,-0.13987 -0.48418,0 -0.90381,0.0323 -0.41963,0.0323 -0.75318,0.0753 -0.0323,0.51647 -0.0538,1.08673 -0.0108,0.55951 -0.0108,1.14053 z"
         style="fill:#2b3e63"
         id="path430" />
      <path
         d="m 136.1936,132.38063 q 0,-0.69938 -0.0323,-1.388 -0.0215,-0.69938 -0.0538,-1.39876 0.13987,0.0215 0.26899,0.043 0.12912,0.0108 0.25823,0.0108 0.12912,0 0.25824,-0.0108 0.12911,-0.0215 0.26899,-0.043 -0.0323,0.69938 -0.0646,1.39876 -0.0215,0.68862 -0.0215,1.388 v 1.85067 q 0,0.69938 0.0215,1.39876 0.0323,0.68862 0.0646,1.388 -0.13988,-0.0215 -0.26899,-0.043 -0.12912,-0.0108 -0.25824,-0.0108 -0.12911,0 -0.25823,0.0108 -0.12912,0.0215 -0.26899,0.043 0.0323,-0.69938 0.0538,-1.388 0.0323,-0.69938 0.0323,-1.39876 z"
         style="fill:#2b3e63"
         id="path432" />
      <path
         d="m 144.50889,137.15794 q -1.23736,-1.45256 -2.64688,-2.95892 -1.39876,-1.51712 -2.78676,-2.9912 -0.0108,0.30128 -0.0215,0.81774 -0.0108,0.50571 -0.0108,1.36648 0,0.22596 0,0.55951 0.0108,0.33355 0.0108,0.69938 0.0108,0.36583 0.0108,0.74242 0.0108,0.37659 0.0215,0.69938 0.0108,0.32279 0.0215,0.57026 0.0215,0.24748 0.0323,0.35507 -0.19367,-0.0538 -0.37659,-0.0538 -0.0968,0 -0.19367,0.0108 -0.0968,0.0215 -0.20443,0.043 0.0215,-0.12911 0.043,-0.41963 0.0323,-0.30127 0.0538,-0.69938 0.0215,-0.40886 0.043,-0.88229 0.0323,-0.47343 0.043,-0.94686 0.0215,-0.47342 0.0323,-0.92533 0.0108,-0.45191 0.0108,-0.80698 0,-1.02217 -0.0108,-1.76459 0,-0.75318 -0.0215,-1.11901 h 0.17216 q 0.65634,0.71014 1.39876,1.52788 0.75318,0.80698 1.48483,1.6032 0.74242,0.78545 1.39877,1.49559 0.6671,0.69938 1.16204,1.19433 0,-0.7209 0,-1.46332 0,-0.75318 -0.0108,-1.47408 -0.0108,-0.73166 -0.0323,-1.42028 -0.0108,-0.69938 -0.043,-1.32344 0.19367,0.0538 0.36583,0.0538 0.15063,0 0.34431,-0.0538 -0.0215,0.23671 -0.0538,0.71014 -0.0323,0.47343 -0.0646,1.01141 -0.0215,0.53799 -0.043,1.05445 -0.0108,0.51647 -0.0108,0.8285 0,0.40887 0,1.01141 0.0108,0.60254 0.0108,1.20509 0.0108,0.59178 0.0108,1.07597 0.0108,0.48418 0.0108,0.6671 z"
         style="fill:#2b3e63"
         id="path434" />
      <path
         d="m 152.25393,130.90655 q -0.16139,-0.19367 -0.40887,-0.38735 -0.23671,-0.19367 -0.53798,-0.33355 -0.29051,-0.15063 -0.65634,-0.23671 -0.35507,-0.0968 -0.76394,-0.0968 -0.6671,0 -1.24813,0.20444 -0.57026,0.20443 -1.00065,0.63482 -0.41963,0.41963 -0.6671,1.07597 -0.23672,0.64558 -0.23672,1.53864 0,0.79621 0.2152,1.43104 0.21519,0.62406 0.62406,1.06521 0.41963,0.43038 1.01141,0.6671 0.59179,0.23671 1.35573,0.23671 0.46266,0 0.94685,-0.0861 0.49494,-0.0861 0.7747,-0.25823 0.0108,-0.32279 0.0108,-0.64558 0.0108,-0.32279 0.0108,-0.65634 0,-0.37659 -0.0215,-0.75318 -0.0108,-0.37659 -0.0323,-0.7209 0.23671,0.0538 0.51646,0.0538 0.11836,0 0.23672,-0.0108 0.11835,-0.0108 0.22595,-0.043 -0.0215,0.24747 -0.0323,0.78546 -0.0108,0.52722 -0.0108,1.39876 0,0.21519 0,0.44114 0.0108,0.2152 0.0108,0.43039 -0.22595,0.0861 -0.57026,0.17216 -0.33355,0.0861 -0.7209,0.16139 -0.37659,0.0861 -0.76394,0.12912 -0.37659,0.0538 -0.68862,0.0538 -0.95762,0 -1.73231,-0.24747 -0.76394,-0.24748 -1.30193,-0.73166 -0.53798,-0.48419 -0.82849,-1.20509 -0.29052,-0.7209 -0.29052,-1.66775 0,-0.91458 0.30128,-1.62472 0.30127,-0.7209 0.85001,-1.21584 0.54875,-0.49495 1.32345,-0.75318 0.77469,-0.25824 1.73231,-0.25824 0.54874,0 0.96837,0.0646 0.43039,0.0538 0.75318,0.15064 0.33355,0.0861 0.58102,0.20443 0.24748,0.1076 0.44115,0.20444 -0.0861,0.15063 -0.1614,0.38735 -0.0645,0.23671 -0.0861,0.44114 z"
         style="fill:#2b3e63"
         id="path436" />
      <path
         d="m 162.11613,137.01806 q -0.24747,-0.6671 -0.60254,-1.56015 -0.34431,-0.89306 -0.75318,-1.88295 -0.39811,-1.00065 -0.8285,-2.02283 -0.43039,-1.03293 -0.81774,-1.95826 0.30128,0.0538 0.55951,0.0538 0.25823,0 0.5595,-0.0538 0.23672,0.71014 0.51647,1.4956 0.29051,0.7747 0.60254,1.58167 0.32279,0.80698 0.65634,1.63548 0.33355,0.82849 0.67786,1.64623 0.19368,-0.44115 0.41963,-0.97913 0.22596,-0.53799 0.46267,-1.12977 0.23671,-0.59178 0.46267,-1.19433 0.23671,-0.60254 0.44114,-1.16204 0.20444,-0.57027 0.36583,-1.05445 0.17216,-0.48419 0.29052,-0.83926 0.21519,0.0538 0.39811,0.0538 0.18291,0 0.3981,-0.0538 -1.67851,3.7121 -3.09879,7.42419 -0.19367,-0.0538 -0.35507,-0.0538 -0.19367,0 -0.35507,0.0538 z"
         style="fill:#2b3e63"
         id="path438" />
      <path
         d="m 166.69559,132.36987 q 0,-0.69938 -0.0323,-1.388 -0.0215,-0.69938 -0.0538,-1.388 0.48419,0.0215 0.95761,0.043 0.48419,0.0108 0.96838,0.0108 0.48418,0 0.95761,-0.0108 0.47343,-0.0215 0.95761,-0.043 -0.0323,0.1614 -0.0323,0.32279 0,0.1614 0.0323,0.32279 -0.34431,-0.0215 -0.63482,-0.043 -0.27975,-0.0323 -0.60254,-0.0538 -0.31203,-0.0215 -0.68862,-0.0323 -0.37659,-0.0108 -0.90382,-0.0108 -0.0108,0.34431 -0.0323,0.65634 -0.0108,0.31203 -0.0108,0.71014 0,0.41963 0,0.81773 0.0108,0.39811 0.0108,0.60255 0.94686,0 1.53864,-0.0323 0.60254,-0.0323 1.07597,-0.0753 -0.0323,0.1614 -0.0323,0.33355 0,0.1614 0.0323,0.32279 -0.27975,-0.0323 -0.65634,-0.043 -0.36583,-0.0215 -0.74242,-0.0323 -0.36583,-0.0108 -0.69938,-0.0108 -0.32279,-0.0108 -0.51647,-0.0108 0,0.0968 -0.0108,0.21519 0,0.1076 0,0.27975 0,0.1614 0,0.41963 0,0.25823 0,0.64558 0,0.6133 0,1.01141 0.0108,0.39811 0.0215,0.60255 0.35507,0 0.75318,0 0.40887,-0.0108 0.79622,-0.0215 0.39811,-0.0108 0.74242,-0.0323 0.35507,-0.0323 0.6133,-0.0861 -0.0215,0.0753 -0.0323,0.17216 0,0.0861 0,0.16139 0,0.17216 0.0323,0.31203 -0.48419,-0.0215 -0.96837,-0.043 -0.47343,-0.0108 -0.96838,-0.0108 -0.49494,0 -0.97913,0.0108 -0.48418,0.0215 -0.97913,0.043 0.0323,-0.71014 0.0538,-1.39876 0.0323,-0.69938 0.0323,-1.39876 z"
         style="fill:#2b3e63"
         id="path440" />
      <path
         d="m 177.37143,136.54464 q -0.0968,0.0861 -0.31203,0.19367 -0.21519,0.0968 -0.5057,0.19367 -0.29051,0.0968 -0.65634,0.1614 -0.36583,0.0646 -0.76394,0.0646 -0.85002,0 -1.57092,-0.25823 -0.7209,-0.25824 -1.24812,-0.75318 -0.51647,-0.49495 -0.81774,-1.20509 -0.29051,-0.7209 -0.29051,-1.63547 0,-0.91458 0.29051,-1.62472 0.30127,-0.7209 0.8285,-1.21584 0.53798,-0.49495 1.2804,-0.75318 0.74242,-0.25824 1.63547,-0.25824 0.69938,0 1.29117,0.15064 0.60254,0.13988 1.04369,0.34431 -0.0861,0.15064 -0.13988,0.40887 -0.0538,0.25823 -0.0861,0.43039 l -0.0646,0.0215 q -0.11836,-0.12912 -0.31203,-0.29052 -0.18292,-0.16139 -0.44115,-0.31203 -0.25823,-0.15063 -0.59179,-0.24747 -0.32279,-0.1076 -0.69938,-0.1076 -0.63482,0 -1.18356,0.20444 -0.53799,0.20443 -0.94686,0.63482 -0.39811,0.41963 -0.62406,1.07597 -0.22595,0.64558 -0.22595,1.53864 0,0.89305 0.22595,1.54939 0.22595,0.64558 0.62406,1.07597 0.40887,0.41963 0.94686,0.62407 0.54874,0.20443 1.18356,0.20443 0.38735,0 0.71014,-0.0968 0.33355,-0.0968 0.60255,-0.22595 0.27975,-0.13988 0.49494,-0.29051 0.22596,-0.1614 0.37659,-0.27976 l 0.043,0.043 z"
         style="fill:#2b3e63"
         id="path442" />
      <path
         d="m 180.61436,132.38063 q 0,-1.10825 -0.0323,-2.22726 -0.27976,0 -0.59179,0.0108 -0.30127,0 -0.6133,0.0215 -0.30127,0.0108 -0.59178,0.0323 -0.27976,0.0215 -0.50571,0.0538 0.0538,-0.18291 0.0538,-0.34431 0,-0.13988 -0.0538,-0.33355 0.69938,0.0215 1.388,0.043 0.68862,0.0108 1.388,0.0108 0.69938,0 1.388,-0.0108 0.68862,-0.0215 1.388,-0.043 -0.0538,0.19367 -0.0538,0.34431 0,0.15064 0.0538,0.33355 -0.22595,-0.0323 -0.51646,-0.0538 -0.27975,-0.0215 -0.59178,-0.0323 -0.30128,-0.0215 -0.61331,-0.0215 -0.30127,-0.0108 -0.58102,-0.0108 -0.0323,1.11901 -0.0323,2.22726 v 1.85067 q 0,0.69938 0.0215,1.39876 0.0323,0.68862 0.0646,1.388 -0.13988,-0.0215 -0.26899,-0.043 -0.12912,-0.0108 -0.25824,-0.0108 -0.12911,0 -0.25823,0.0108 -0.12912,0.0215 -0.26899,0.043 0.0323,-0.69938 0.0538,-1.388 0.0323,-0.69938 0.0323,-1.39876 z"
         style="fill:#2b3e63"
         id="path444" />
      <path
         d="m 183.69831,133.30597 q 0,-0.91458 0.29052,-1.62472 0.30127,-0.7209 0.82849,-1.21584 0.53799,-0.49495 1.26965,-0.75318 0.74242,-0.25824 1.63547,-0.25824 0.89306,0 1.63548,0.25824 0.74242,0.25823 1.26964,0.75318 0.53799,0.49494 0.8285,1.21584 0.30127,0.71014 0.30127,1.62472 0,0.91457 -0.30127,1.63547 -0.29051,0.71014 -0.8285,1.20509 -0.52722,0.49494 -1.26964,0.75318 -0.74242,0.25823 -1.63548,0.25823 -0.89305,0 -1.63547,-0.25823 -0.73166,-0.25824 -1.26965,-0.75318 -0.52722,-0.49495 -0.82849,-1.20509 -0.29052,-0.7209 -0.29052,-1.63547 z m 7.00457,0 q 0,-0.89306 -0.22596,-1.53864 -0.22595,-0.65634 -0.63482,-1.07597 -0.39811,-0.43039 -0.94685,-0.63482 -0.53799,-0.20444 -1.17281,-0.20444 -0.63482,0 -1.17281,0.20444 -0.53798,0.20443 -0.94685,0.63482 -0.39811,0.41963 -0.62406,1.07597 -0.22596,0.64558 -0.22596,1.53864 0,0.89305 0.22596,1.54939 0.22595,0.64558 0.62406,1.07597 0.40887,0.41963 0.94685,0.62407 0.53799,0.20443 1.17281,0.20443 0.63482,0 1.17281,-0.20443 0.54874,-0.20444 0.94685,-0.62407 0.40887,-0.43039 0.63482,-1.07597 0.22596,-0.65634 0.22596,-1.54939 z"
         style="fill:#2b3e63"
         id="path446" />
      <path
         d="m 192.93024,132.38063 q 0,-0.69938 -0.0323,-1.388 -0.0215,-0.69938 -0.0538,-1.39876 0.31203,0.0215 0.6133,0.043 0.30127,0.0108 0.6133,0.0108 0.31204,0 0.61331,-0.0215 0.30127,-0.0323 0.6133,-0.0323 0.45191,0 0.86078,0.0861 0.40886,0.0861 0.71014,0.29051 0.31203,0.19367 0.48418,0.51646 0.18292,0.3228 0.18292,0.80698 0,0.51647 -0.23672,0.89306 -0.22595,0.36583 -0.5595,0.6133 -0.33355,0.24747 -0.7209,0.37659 -0.38735,0.12912 -0.68862,0.17215 0.12912,0.1614 0.35507,0.45191 0.22595,0.29051 0.50571,0.64558 0.27975,0.34431 0.58102,0.7209 0.30127,0.37659 0.58102,0.73166 0.27976,0.35507 0.51647,0.65635 0.24747,0.29051 0.40887,0.46266 -0.1614,-0.0215 -0.32279,-0.043 -0.1614,-0.0108 -0.32279,-0.0108 -0.15064,0 -0.31204,0.0108 -0.16139,0.0215 -0.31203,0.043 -0.16139,-0.24747 -0.49494,-0.69938 -0.32279,-0.46267 -0.7209,-0.97913 -0.38735,-0.52723 -0.80698,-1.03293 -0.41963,-0.50571 -0.76394,-0.86078 h -0.40887 v 0.78546 q 0,0.69938 0.0215,1.39876 0.0323,0.68862 0.0646,1.388 -0.13988,-0.0215 -0.26899,-0.043 -0.12912,-0.0108 -0.25824,-0.0108 -0.12911,0 -0.25823,0.0108 -0.12912,0.0215 -0.26899,0.043 0.0323,-0.69938 0.0538,-1.388 0.0323,-0.69938 0.0323,-1.39876 z m 0.88229,0.6133 q 0.15064,0.0323 0.32279,0.043 0.18292,0.0108 0.39811,0.0108 0.33355,0 0.68862,-0.0753 0.36583,-0.0753 0.6671,-0.25824 0.30128,-0.19367 0.49495,-0.5057 0.20443,-0.32279 0.20443,-0.80698 0,-0.41963 -0.16139,-0.68862 -0.15064,-0.27975 -0.39811,-0.44115 -0.24747,-0.16139 -0.54874,-0.21519 -0.29052,-0.0646 -0.55951,-0.0646 -0.37659,0 -0.62406,0.0215 -0.24747,0.0108 -0.41963,0.0323 -0.0215,0.59178 -0.043,1.1728 -0.0215,0.58103 -0.0215,1.16205 z"
         style="fill:#2b3e63"
         id="path448" />
    </g>
    <g
       aria-label="ORIENTED CLUSTERING"
       id="text743"
       style="font-size:3.175px;fill:#7088b8;stroke-width:0.264583">
      <path
         d="m 94.629527,184.78513 q 0,-0.89958 0.285749,-1.59808 0.296332,-0.70908 0.814914,-1.19591 0.529165,-0.48683 1.248829,-0.74083 0.730248,-0.254 1.608662,-0.254 0.878414,0 1.608659,0.254 0.73025,0.254 1.24883,0.74083 0.52917,0.48683 0.81492,1.19591 0.29633,0.6985 0.29633,1.59808 0,0.89958 -0.29633,1.60866 -0.28575,0.6985 -0.81492,1.18533 -0.51858,0.48683 -1.24883,0.74083 -0.730245,0.254 -1.608659,0.254 -0.878414,0 -1.608662,-0.254 -0.719664,-0.254 -1.248829,-0.74083 -0.518582,-0.48683 -0.814914,-1.18533 -0.285749,-0.70908 -0.285749,-1.60866 z m 6.889723,0 q 0,-0.87841 -0.22224,-1.51341 -0.22225,-0.64558 -0.62442,-1.05833 -0.39158,-0.42333 -0.93133,-0.62441 -0.529165,-0.20109 -1.153579,-0.20109 -0.624415,0 -1.15358,0.20109 -0.529165,0.20108 -0.93133,0.62441 -0.391582,0.41275 -0.613832,1.05833 -0.222249,0.635 -0.222249,1.51341 0,0.87842 0.222249,1.524 0.22225,0.63499 0.613832,1.05833 0.402165,0.41275 0.93133,0.61383 0.529165,0.20108 1.15358,0.20108 0.624414,0 1.153579,-0.20108 0.53975,-0.20108 0.93133,-0.61383 0.40217,-0.42334 0.62442,-1.05833 0.22224,-0.64558 0.22224,-1.524 z"
         style="font-size:10.5833px;font-family:'Optima LT';-inkscape-font-specification:'Optima LT, Normal';fill:#2b3e63"
         id="path498" />
      <path
         d="m 103.50455,183.87497 q 0,-0.68792 -0.0317,-1.36525 -0.0212,-0.68791 -0.0529,-1.37583 0.30692,0.0212 0.60325,0.0423 0.29633,0.0106 0.60325,0.0106 0.30692,0 0.60325,-0.0212 0.29633,-0.0317 0.60325,-0.0317 0.44449,0 0.84666,0.0847 0.40216,0.0847 0.6985,0.28575 0.30691,0.1905 0.47625,0.508 0.17991,0.3175 0.17991,0.79374 0,0.508 -0.23283,0.87842 -0.22225,0.35983 -0.55033,0.60325 -0.32808,0.24341 -0.70908,0.37041 -0.381,0.127 -0.67733,0.16933 0.127,0.15875 0.34924,0.4445 0.22225,0.28575 0.49742,0.635 0.27517,0.33867 0.5715,0.70908 0.29633,0.37042 0.5715,0.71967 0.27516,0.34925 0.50799,0.64558 0.24342,0.28575 0.40217,0.45508 -0.15875,-0.0212 -0.3175,-0.0423 -0.15875,-0.0106 -0.3175,-0.0106 -0.14816,0 -0.30691,0.0106 -0.15875,0.0212 -0.30692,0.0423 -0.15875,-0.24342 -0.48683,-0.68791 -0.3175,-0.45509 -0.70908,-0.96308 -0.381,-0.51859 -0.79375,-1.016 -0.41275,-0.49742 -0.75141,-0.84667 h -0.40217 v 0.77259 q 0,0.68791 0.0212,1.37582 0.0317,0.67734 0.0635,1.36525 -0.13759,-0.0212 -0.26459,-0.0423 -0.127,-0.0106 -0.254,-0.0106 -0.12699,0 -0.25399,0.0106 -0.127,0.0212 -0.26459,0.0423 0.0317,-0.68791 0.0529,-1.36525 0.0317,-0.68791 0.0317,-1.37582 z m 0.86783,0.60325 q 0.14817,0.0318 0.3175,0.0423 0.17992,0.0106 0.39158,0.0106 0.32808,0 0.67733,-0.0741 0.35983,-0.0741 0.65617,-0.254 0.29633,-0.1905 0.48683,-0.49742 0.20108,-0.31749 0.20108,-0.79374 0,-0.41275 -0.15875,-0.67733 -0.14816,-0.27517 -0.39158,-0.43392 -0.24342,-0.15875 -0.53975,-0.21166 -0.28575,-0.0635 -0.55033,-0.0635 -0.37042,0 -0.61383,0.0212 -0.24342,0.0106 -0.41275,0.0318 -0.0212,0.58208 -0.0423,1.15358 -0.0212,0.5715 -0.0212,1.143 z"
         style="font-size:10.5833px;font-family:'Optima LT';-inkscape-font-specification:'Optima LT, Normal';fill:#2b3e63"
         id="path500" />
      <path
         d="m 109.43741,183.87497 q 0,-0.68792 -0.0318,-1.36525 -0.0212,-0.68791 -0.0529,-1.37583 0.13758,0.0212 0.26458,0.0423 0.127,0.0106 0.254,0.0106 0.127,0 0.254,-0.0106 0.127,-0.0212 0.26458,-0.0423 -0.0318,0.68792 -0.0635,1.37583 -0.0212,0.67733 -0.0212,1.36525 v 1.82033 q 0,0.68791 0.0212,1.37582 0.0318,0.67734 0.0635,1.36525 -0.13758,-0.0212 -0.26458,-0.0423 -0.127,-0.0106 -0.254,-0.0106 -0.127,0 -0.254,0.0106 -0.127,0.0212 -0.26458,0.0423 0.0318,-0.68791 0.0529,-1.36525 0.0318,-0.68791 0.0318,-1.37582 z"
         style="font-size:10.5833px;font-family:'Optima LT';-inkscape-font-specification:'Optima LT, Normal';fill:#2b3e63"
         id="path502" />
      <path
         d="m 111.64596,183.86438 q 0,-0.68791 -0.0318,-1.36524 -0.0212,-0.68792 -0.0529,-1.36525 0.47624,0.0212 0.94191,0.0423 0.47625,0.0106 0.9525,0.0106 0.47625,0 0.94191,-0.0106 0.46567,-0.0212 0.94191,-0.0423 -0.0318,0.15875 -0.0318,0.3175 0,0.15875 0.0318,0.3175 -0.33866,-0.0212 -0.62441,-0.0423 -0.27517,-0.0318 -0.59267,-0.0529 -0.30691,-0.0212 -0.67733,-0.0318 -0.37041,-0.0106 -0.88899,-0.0106 -0.0106,0.33866 -0.0318,0.64558 -0.0106,0.30692 -0.0106,0.6985 0,0.41275 0,0.80433 0.0106,0.39158 0.0106,0.59266 0.93133,0 1.51341,-0.0317 0.59266,-0.0318 1.05833,-0.0741 -0.0318,0.15875 -0.0318,0.32808 0,0.15875 0.0318,0.3175 -0.27517,-0.0317 -0.64558,-0.0423 -0.35984,-0.0212 -0.73025,-0.0317 -0.35983,-0.0106 -0.68792,-0.0106 -0.31749,-0.0106 -0.50799,-0.0106 0,0.0952 -0.0106,0.21167 0,0.10583 0,0.27516 0,0.15875 0,0.41275 0,0.254 0,0.635 0,0.60325 0,0.99483 0.0106,0.39158 0.0212,0.59266 0.34925,0 0.74083,0 0.40217,-0.0106 0.78316,-0.0212 0.39159,-0.0106 0.73025,-0.0317 0.34925,-0.0318 0.60325,-0.0847 -0.0212,0.0741 -0.0318,0.16933 0,0.0847 0,0.15875 0,0.16934 0.0318,0.30692 -0.47625,-0.0212 -0.9525,-0.0423 -0.46566,-0.0106 -0.95249,-0.0106 -0.48684,0 -0.96308,0.0106 -0.47625,0.0212 -0.96308,0.0423 0.0318,-0.6985 0.0529,-1.37583 0.0318,-0.68791 0.0318,-1.37583 z"
         style="font-size:10.5833px;font-family:'Optima LT';-inkscape-font-specification:'Optima LT, Normal';fill:#2b3e63"
         id="path504" />
      <path
         d="m 122.09571,188.57395 q -1.21708,-1.42874 -2.60349,-2.9104 -1.37583,-1.49225 -2.74107,-2.94216 -0.0106,0.29633 -0.0212,0.80433 -0.0106,0.49741 -0.0106,1.34408 0,0.22225 0,0.55033 0.0106,0.32808 0.0106,0.68791 0.0106,0.35984 0.0106,0.73025 0.0106,0.37042 0.0212,0.68792 0.0106,0.3175 0.0212,0.56091 0.0212,0.24342 0.0318,0.34925 -0.1905,-0.0529 -0.37042,-0.0529 -0.0953,0 -0.1905,0.0106 -0.0953,0.0212 -0.20108,0.0423 0.0212,-0.127 0.0423,-0.41275 0.0317,-0.29633 0.0529,-0.68791 0.0212,-0.40217 0.0423,-0.86783 0.0318,-0.46567 0.0423,-0.93133 0.0212,-0.46567 0.0317,-0.91017 0.0106,-0.4445 0.0106,-0.79375 0,-1.00541 -0.0106,-1.73566 0,-0.74083 -0.0212,-1.10066 h 0.16933 q 0.64558,0.6985 1.37583,1.50283 0.74083,0.79375 1.46049,1.57691 0.73025,0.77258 1.37583,1.47108 0.65617,0.68791 1.143,1.17475 0,-0.70909 0,-1.43933 0,-0.74083 -0.0106,-1.44992 -0.0106,-0.71966 -0.0318,-1.39699 -0.0106,-0.68792 -0.0423,-1.30175 0.1905,0.0529 0.35984,0.0529 0.14816,0 0.33866,-0.0529 -0.0212,0.23284 -0.0529,0.6985 -0.0318,0.46567 -0.0635,0.99483 -0.0212,0.52917 -0.0423,1.03716 -0.0106,0.508 -0.0106,0.81492 0,0.40216 0,0.99483 0.0106,0.59266 0.0106,1.18533 0.0106,0.58208 0.0106,1.05833 0.0106,0.47625 0.0106,0.65616 z"
         style="font-size:10.5833px;font-family:'Optima LT';-inkscape-font-specification:'Optima LT, Normal';fill:#2b3e63"
         id="path506" />
      <path
         d="m 125.30867,183.87497 q 0,-1.09008 -0.0318,-2.19075 -0.27517,0 -0.58208,0.0106 -0.29634,0 -0.60325,0.0212 -0.29634,0.0106 -0.58208,0.0317 -0.27517,0.0212 -0.49742,0.0529 0.0529,-0.17992 0.0529,-0.33866 0,-0.13759 -0.0529,-0.32809 0.68792,0.0212 1.36525,0.0423 0.67733,0.0106 1.36524,0.0106 0.68792,0 1.36525,-0.0106 0.67733,-0.0212 1.36524,-0.0423 -0.0529,0.1905 -0.0529,0.33867 0,0.14816 0.0529,0.32808 -0.22225,-0.0317 -0.508,-0.0529 -0.27516,-0.0212 -0.58208,-0.0317 -0.29633,-0.0212 -0.60324,-0.0212 -0.29634,-0.0106 -0.5715,-0.0106 -0.0318,1.10067 -0.0318,2.19075 v 1.82033 q 0,0.68791 0.0212,1.37582 0.0318,0.67734 0.0635,1.36525 -0.13758,-0.0212 -0.26458,-0.0423 -0.127,-0.0106 -0.254,-0.0106 -0.127,0 -0.254,0.0106 -0.127,0.0212 -0.26458,0.0423 0.0318,-0.68791 0.0529,-1.36525 0.0318,-0.68791 0.0318,-1.37582 z"
         style="font-size:10.5833px;font-family:'Optima LT';-inkscape-font-specification:'Optima LT, Normal';fill:#2b3e63"
         id="path508" />
      <path
         d="m 129.18837,183.86438 q 0,-0.68791 -0.0317,-1.36524 -0.0212,-0.68792 -0.0529,-1.36525 0.47625,0.0212 0.94191,0.0423 0.47625,0.0106 0.9525,0.0106 0.47625,0 0.94191,-0.0106 0.46567,-0.0212 0.94192,-0.0423 -0.0317,0.15875 -0.0317,0.3175 0,0.15875 0.0317,0.3175 -0.33867,-0.0212 -0.62442,-0.0423 -0.27516,-0.0318 -0.59266,-0.0529 -0.30692,-0.0212 -0.67733,-0.0318 -0.37042,-0.0106 -0.889,-0.0106 -0.0106,0.33866 -0.0318,0.64558 -0.0106,0.30692 -0.0106,0.6985 0,0.41275 0,0.80433 0.0106,0.39158 0.0106,0.59266 0.93133,0 1.51341,-0.0317 0.59267,-0.0318 1.05833,-0.0741 -0.0317,0.15875 -0.0317,0.32808 0,0.15875 0.0317,0.3175 -0.27516,-0.0317 -0.64558,-0.0423 -0.35983,-0.0212 -0.73025,-0.0317 -0.35983,-0.0106 -0.68791,-0.0106 -0.3175,-0.0106 -0.508,-0.0106 0,0.0952 -0.0106,0.21167 0,0.10583 0,0.27516 0,0.15875 0,0.41275 0,0.254 0,0.635 0,0.60325 0,0.99483 0.0106,0.39158 0.0212,0.59266 0.34925,0 0.74083,0 0.40217,-0.0106 0.78317,-0.0212 0.39158,-0.0106 0.73025,-0.0317 0.34925,-0.0318 0.60324,-0.0847 -0.0212,0.0741 -0.0318,0.16933 0,0.0847 0,0.15875 0,0.16934 0.0318,0.30692 -0.47624,-0.0212 -0.95249,-0.0423 -0.46567,-0.0106 -0.9525,-0.0106 -0.48683,0 -0.96308,0.0106 -0.47625,0.0212 -0.96308,0.0423 0.0317,-0.6985 0.0529,-1.37583 0.0317,-0.68791 0.0317,-1.37583 z"
         style="font-size:10.5833px;font-family:'Optima LT';-inkscape-font-specification:'Optima LT, Normal';fill:#2b3e63"
         id="path510" />
      <path
         d="m 133.74641,183.87497 q 0,-0.68792 -0.0317,-1.36525 -0.0212,-0.68791 -0.0529,-1.37583 0.40217,0.0212 0.79375,0.0423 0.40217,0.0106 0.80433,0.0106 0.40217,0 0.79375,-0.0212 0.40217,-0.0317 0.80433,-0.0317 0.93133,0 1.5875,0.24342 0.66674,0.24341 1.09008,0.6985 0.42333,0.4445 0.61383,1.10066 0.20108,0.64558 0.20108,1.4605 0,1.05833 -0.37042,1.78857 -0.35983,0.71967 -0.93133,1.17475 -0.56091,0.4445 -1.24883,0.64558 -0.67733,0.1905 -1.30174,0.1905 -0.35983,0 -0.70908,-0.0318 -0.34925,-0.0212 -0.70908,-0.0212 -0.35984,0 -0.70908,0.0106 -0.34925,0.0212 -0.70909,0.0423 0.0317,-0.68791 0.0529,-1.36525 0.0317,-0.68791 0.0317,-1.37582 z m 0.86783,1.82033 q 0,1.15357 0.0635,2.24365 0.22225,0.0529 0.60325,0.0847 0.381,0.0212 0.78316,0.0212 0.58209,0 1.16417,-0.13759 0.58208,-0.13758 1.03716,-0.51858 0.46567,-0.381 0.75141,-1.03716 0.29634,-0.66675 0.29634,-1.71449 0,-0.92075 -0.23284,-1.51342 -0.22225,-0.59266 -0.62441,-0.93133 -0.39158,-0.34925 -0.9525,-0.47625 -0.55033,-0.13758 -1.19591,-0.13758 -0.47625,0 -0.889,0.0317 -0.41275,0.0317 -0.74083,0.0741 -0.0317,0.508 -0.0529,1.06892 -0.0106,0.55033 -0.0106,1.12183 z"
         style="font-size:10.5833px;font-family:'Optima LT';-inkscape-font-specification:'Optima LT, Normal';fill:#2b3e63"
         id="path512" />
      <path
         d="m 150.52732,187.9707 q -0.0952,0.0847 -0.30691,0.1905 -0.21167,0.0952 -0.49742,0.1905 -0.28575,0.0952 -0.64558,0.15875 -0.35983,0.0635 -0.75141,0.0635 -0.83608,0 -1.54517,-0.254 -0.70908,-0.254 -1.22766,-0.74083 -0.508,-0.48683 -0.80433,-1.18533 -0.28575,-0.70908 -0.28575,-1.60866 0,-0.89958 0.28575,-1.59808 0.29633,-0.70908 0.81491,-1.19591 0.52917,-0.48683 1.25942,-0.74083 0.73024,-0.254 1.60866,-0.254 0.68791,0 1.26999,0.14817 0.59267,0.13758 1.02658,0.33866 -0.0847,0.14817 -0.13758,0.40217 -0.0529,0.254 -0.0847,0.42333 l -0.0635,0.0212 q -0.11642,-0.127 -0.30692,-0.28575 -0.17992,-0.15875 -0.43392,-0.30692 -0.25399,-0.14816 -0.58208,-0.24341 -0.3175,-0.10584 -0.68791,-0.10584 -0.62442,0 -1.16416,0.20109 -0.52917,0.20108 -0.93133,0.62441 -0.39159,0.41275 -0.61384,1.05833 -0.22225,0.635 -0.22225,1.51341 0,0.87842 0.22225,1.524 0.22225,0.63499 0.61384,1.05833 0.40216,0.41275 0.93133,0.61383 0.53974,0.20108 1.16416,0.20108 0.381,0 0.6985,-0.0952 0.32808,-0.0952 0.59266,-0.22225 0.27517,-0.13758 0.48683,-0.28575 0.22225,-0.15875 0.37042,-0.27516 l 0.0423,0.0423 z"
         style="font-size:10.5833px;font-family:'Optima LT';-inkscape-font-specification:'Optima LT, Normal';fill:#2b3e63"
         id="path514" />
      <path
         d="m 151.58128,183.87497 q 0,-0.68792 -0.0317,-1.36525 -0.0212,-0.68791 -0.0529,-1.37583 0.13759,0.0212 0.26459,0.0423 0.127,0.0106 0.254,0.0106 0.127,0 0.25399,-0.0106 0.127,-0.0212 0.26459,-0.0423 -0.0318,0.68792 -0.0635,1.37583 -0.0212,0.67733 -0.0212,1.36525 0,1.33349 0.0106,2.31774 0.0106,0.97366 0.0212,1.74624 0.75142,0 1.43933,-0.0106 0.68791,-0.0212 1.48166,-0.127 -0.0529,0.17992 -0.0529,0.3175 0,0.13758 0.0529,0.3175 -0.48683,-0.0212 -0.97366,-0.0423 -0.48683,-0.0106 -0.97367,-0.0106 -0.49741,0 -0.98424,0.0106 -0.47625,0.0212 -0.97367,0.0423 0.0317,-0.68791 0.0529,-1.36525 0.0317,-0.68791 0.0317,-1.37582 z"
         style="font-size:10.5833px;font-family:'Optima LT';-inkscape-font-specification:'Optima LT, Normal';fill:#2b3e63"
         id="path516" />
      <path
         d="m 161.25307,184.57347 q 0,-1.50283 -0.0106,-2.31775 -0.0106,-0.81491 -0.0529,-1.12183 0.23284,0.0529 0.43392,0.0529 0.15875,0 0.3175,-0.0529 -0.0317,0.37042 -0.0635,0.889 -0.0317,0.508 -0.0635,1.10066 -0.0212,0.58208 -0.0423,1.2065 -0.0106,0.61383 -0.0212,1.19591 -0.0106,0.6985 -0.21167,1.27 -0.20108,0.56091 -0.59266,0.96308 -0.381,0.39158 -0.94192,0.60325 -0.56091,0.21166 -1.26999,0.21166 -1.57691,0 -2.30716,-0.74083 -0.71967,-0.74083 -0.71967,-2.28599 0,-0.49742 0.0212,-0.87841 0.0318,-0.39159 0.0318,-0.79375 0,-0.87842 -0.0212,-1.57691 -0.0212,-0.6985 -0.0423,-1.16417 0.127,0.0212 0.27517,0.0423 0.14816,0.0106 0.27516,0.0106 0.22225,0 0.45508,-0.0529 -0.0212,0.23284 -0.0529,0.61383 -0.0212,0.37042 -0.0423,0.84667 -0.0106,0.47625 -0.0212,1.03716 -0.0106,0.55033 -0.0106,1.13241 0,0.35984 0.0106,0.75142 0.0106,0.381 0.0741,0.75141 0.0635,0.35984 0.20108,0.6985 0.14817,0.32808 0.41275,0.58208 0.26459,0.24342 0.66675,0.39158 0.40217,0.13759 0.99483,0.13759 0.58208,0 0.97366,-0.16934 0.40217,-0.16933 0.65617,-0.44449 0.254,-0.27517 0.39158,-0.635 0.14817,-0.35983 0.21167,-0.75142 0.0635,-0.39158 0.0741,-0.77258 0.0106,-0.39158 0.0106,-0.73024 z"
         style="font-size:10.5833px;font-family:'Optima LT';-inkscape-font-specification:'Optima LT, Normal';fill:#2b3e63"
         id="path518" />
      <path
         d="m 162.87316,187.02879 q 0.0847,0.1905 0.22224,0.39158 0.14817,0.1905 0.34925,0.34925 0.21167,0.15875 0.48684,0.26458 0.27516,0.0952 0.61383,0.0952 0.34925,0 0.62441,-0.11641 0.28575,-0.127 0.47625,-0.32808 0.20108,-0.21167 0.30692,-0.48684 0.10583,-0.28575 0.10583,-0.60324 0,-0.48684 -0.254,-0.77259 -0.24342,-0.28574 -0.61383,-0.47624 -0.37042,-0.1905 -0.80433,-0.34925 -0.42333,-0.15875 -0.79375,-0.39158 -0.37042,-0.24342 -0.62441,-0.61384 -0.24342,-0.37041 -0.24342,-0.99483 0,-0.44449 0.15875,-0.80433 0.15875,-0.37041 0.45508,-0.63499 0.30692,-0.26459 0.73025,-0.41275 0.42333,-0.14817 0.9525,-0.14817 0.50799,0 0.87841,0.127 0.37041,0.11642 0.68791,0.37042 -0.0952,0.17991 -0.15875,0.38099 -0.0635,0.20109 -0.127,0.508 h -0.12699 q -0.0529,-0.14816 -0.14817,-0.3175 -0.0953,-0.17991 -0.24342,-0.32808 -0.14816,-0.14816 -0.35983,-0.24341 -0.21167,-0.10584 -0.508,-0.10584 -0.29633,0 -0.55033,0.0952 -0.24342,0.0953 -0.43391,0.27517 -0.17992,0.16933 -0.28575,0.41275 -0.0952,0.24341 -0.0952,0.52916 0,0.49742 0.24341,0.78317 0.254,0.28574 0.62442,0.48683 0.37041,0.1905 0.79374,0.34925 0.43392,0.14816 0.80434,0.37041 0.37041,0.22225 0.61383,0.5715 0.254,0.34925 0.254,0.93133 0,0.48683 -0.17992,0.92075 -0.16933,0.43391 -0.508,0.76199 -0.32808,0.3175 -0.81491,0.508 -0.47625,0.1905 -1.09008,0.1905 -0.65617,0 -1.06892,-0.1905 -0.40216,-0.1905 -0.67733,-0.41275 0.0952,-0.24341 0.127,-0.43391 0.0423,-0.20108 0.0741,-0.508 z"
         style="font-size:10.5833px;font-family:'Optima LT';-inkscape-font-specification:'Optima LT, Normal';fill:#2b3e63"
         id="path520" />
      <path
         d="m 169.40188,183.87497 q 0,-1.09008 -0.0318,-2.19075 -0.27517,0 -0.58208,0.0106 -0.29633,0 -0.60325,0.0212 -0.29633,0.0106 -0.58208,0.0317 -0.27517,0.0212 -0.49742,0.0529 0.0529,-0.17992 0.0529,-0.33866 0,-0.13759 -0.0529,-0.32809 0.68792,0.0212 1.36525,0.0423 0.67733,0.0106 1.36525,0.0106 0.68791,0 1.36524,-0.0106 0.67733,-0.0212 1.36525,-0.0423 -0.0529,0.1905 -0.0529,0.33867 0,0.14816 0.0529,0.32808 -0.22225,-0.0317 -0.508,-0.0529 -0.27517,-0.0212 -0.58208,-0.0317 -0.29634,-0.0212 -0.60325,-0.0212 -0.29633,-0.0106 -0.5715,-0.0106 -0.0317,1.10067 -0.0317,2.19075 v 1.82033 q 0,0.68791 0.0212,1.37582 0.0318,0.67734 0.0635,1.36525 -0.13759,-0.0212 -0.26458,-0.0423 -0.127,-0.0106 -0.254,-0.0106 -0.127,0 -0.254,0.0106 -0.127,0.0212 -0.26459,0.0423 0.0318,-0.68791 0.0529,-1.36525 0.0318,-0.68791 0.0318,-1.37582 z"
         style="font-size:10.5833px;font-family:'Optima LT';-inkscape-font-specification:'Optima LT, Normal';fill:#2b3e63"
         id="path522" />
      <path
         d="m 173.28158,183.86438 q 0,-0.68791 -0.0317,-1.36524 -0.0212,-0.68792 -0.0529,-1.36525 0.47625,0.0212 0.94192,0.0423 0.47624,0.0106 0.95249,0.0106 0.47625,0 0.94192,-0.0106 0.46566,-0.0212 0.94191,-0.0423 -0.0318,0.15875 -0.0318,0.3175 0,0.15875 0.0318,0.3175 -0.33867,-0.0212 -0.62441,-0.0423 -0.27517,-0.0318 -0.59267,-0.0529 -0.30691,-0.0212 -0.67733,-0.0318 -0.37042,-0.0106 -0.889,-0.0106 -0.0106,0.33866 -0.0318,0.64558 -0.0106,0.30692 -0.0106,0.6985 0,0.41275 0,0.80433 0.0106,0.39158 0.0106,0.59266 0.93133,0 1.51341,-0.0317 0.59267,-0.0318 1.05833,-0.0741 -0.0317,0.15875 -0.0317,0.32808 0,0.15875 0.0317,0.3175 -0.27516,-0.0317 -0.64558,-0.0423 -0.35983,-0.0212 -0.73024,-0.0317 -0.35984,-0.0106 -0.68792,-0.0106 -0.3175,-0.0106 -0.508,-0.0106 0,0.0952 -0.0106,0.21167 0,0.10583 0,0.27516 0,0.15875 0,0.41275 0,0.254 0,0.635 0,0.60325 0,0.99483 0.0106,0.39158 0.0212,0.59266 0.34924,0 0.74083,0 0.40216,-0.0106 0.78316,-0.0212 0.39158,-0.0106 0.73025,-0.0317 0.34925,-0.0318 0.60325,-0.0847 -0.0212,0.0741 -0.0318,0.16933 0,0.0847 0,0.15875 0,0.16934 0.0318,0.30692 -0.47625,-0.0212 -0.9525,-0.0423 -0.46567,-0.0106 -0.9525,-0.0106 -0.48683,0 -0.96308,0.0106 -0.47625,0.0212 -0.96308,0.0423 0.0317,-0.6985 0.0529,-1.37583 0.0317,-0.68791 0.0317,-1.37583 z"
         style="font-size:10.5833px;font-family:'Optima LT';-inkscape-font-specification:'Optima LT, Normal';fill:#2b3e63"
         id="path524" />
      <path
         d="m 177.97301,183.87497 q 0,-0.68792 -0.0317,-1.36525 -0.0212,-0.68791 -0.0529,-1.37583 0.30692,0.0212 0.60325,0.0423 0.29633,0.0106 0.60325,0.0106 0.30691,0 0.60325,-0.0212 0.29633,-0.0317 0.60324,-0.0317 0.4445,0 0.84667,0.0847 0.40216,0.0847 0.6985,0.28575 0.30691,0.1905 0.47624,0.508 0.17992,0.3175 0.17992,0.79374 0,0.508 -0.23283,0.87842 -0.22225,0.35983 -0.55033,0.60325 -0.32809,0.24341 -0.70909,0.37041 -0.38099,0.127 -0.67733,0.16933 0.127,0.15875 0.34925,0.4445 0.22225,0.28575 0.49742,0.635 0.27516,0.33867 0.5715,0.70908 0.29633,0.37042 0.57149,0.71967 0.27517,0.34925 0.508,0.64558 0.24342,0.28575 0.40217,0.45508 -0.15875,-0.0212 -0.3175,-0.0423 -0.15875,-0.0106 -0.3175,-0.0106 -0.14817,0 -0.30692,0.0106 -0.15875,0.0212 -0.30691,0.0423 -0.15875,-0.24342 -0.48683,-0.68791 -0.3175,-0.45509 -0.70908,-0.96308 -0.381,-0.51859 -0.79375,-1.016 -0.41275,-0.49742 -0.75142,-0.84667 h -0.40216 v 0.77259 q 0,0.68791 0.0212,1.37582 0.0318,0.67734 0.0635,1.36525 -0.13758,-0.0212 -0.26458,-0.0423 -0.127,-0.0106 -0.254,-0.0106 -0.127,0 -0.254,0.0106 -0.127,0.0212 -0.26458,0.0423 0.0317,-0.68791 0.0529,-1.36525 0.0317,-0.68791 0.0317,-1.37582 z m 0.86783,0.60325 q 0.14816,0.0318 0.3175,0.0423 0.17991,0.0106 0.39158,0.0106 0.32808,0 0.67733,-0.0741 0.35983,-0.0741 0.65617,-0.254 0.29633,-0.1905 0.48683,-0.49742 0.20108,-0.31749 0.20108,-0.79374 0,-0.41275 -0.15875,-0.67733 -0.14817,-0.27517 -0.39158,-0.43392 -0.24342,-0.15875 -0.53975,-0.21166 -0.28575,-0.0635 -0.55033,-0.0635 -0.37042,0 -0.61383,0.0212 -0.24342,0.0106 -0.41275,0.0318 -0.0212,0.58208 -0.0423,1.15358 -0.0212,0.5715 -0.0212,1.143 z"
         style="font-size:10.5833px;font-family:'Optima LT';-inkscape-font-specification:'Optima LT, Normal';fill:#2b3e63"
         id="path526" />
      <path
         d="m 183.90587,183.87497 q 0,-0.68792 -0.0317,-1.36525 -0.0212,-0.68791 -0.0529,-1.37583 0.13759,0.0212 0.26459,0.0423 0.12699,0.0106 0.25399,0.0106 0.127,0 0.254,-0.0106 0.127,-0.0212 0.26459,-0.0423 -0.0318,0.68792 -0.0635,1.37583 -0.0212,0.67733 -0.0212,1.36525 v 1.82033 q 0,0.68791 0.0212,1.37582 0.0317,0.67734 0.0635,1.36525 -0.13759,-0.0212 -0.26459,-0.0423 -0.127,-0.0106 -0.254,-0.0106 -0.127,0 -0.25399,0.0106 -0.127,0.0212 -0.26459,0.0423 0.0317,-0.68791 0.0529,-1.36525 0.0317,-0.68791 0.0317,-1.37582 z"
         style="font-size:10.5833px;font-family:'Optima LT';-inkscape-font-specification:'Optima LT, Normal';fill:#2b3e63"
         id="path528" />
      <path
         d="m 191.73936,188.57395 q -1.21708,-1.42874 -2.60349,-2.9104 -1.37583,-1.49225 -2.74108,-2.94216 -0.0106,0.29633 -0.0212,0.80433 -0.0106,0.49741 -0.0106,1.34408 0,0.22225 0,0.55033 0.0106,0.32808 0.0106,0.68791 0.0106,0.35984 0.0106,0.73025 0.0106,0.37042 0.0212,0.68792 0.0106,0.3175 0.0212,0.56091 0.0212,0.24342 0.0318,0.34925 -0.1905,-0.0529 -0.37041,-0.0529 -0.0953,0 -0.1905,0.0106 -0.0952,0.0212 -0.20109,0.0423 0.0212,-0.127 0.0423,-0.41275 0.0317,-0.29633 0.0529,-0.68791 0.0212,-0.40217 0.0423,-0.86783 0.0318,-0.46567 0.0423,-0.93133 0.0212,-0.46567 0.0318,-0.91017 0.0106,-0.4445 0.0106,-0.79375 0,-1.00541 -0.0106,-1.73566 0,-0.74083 -0.0212,-1.10066 h 0.16934 q 0.64558,0.6985 1.37583,1.50283 0.74083,0.79375 1.46049,1.57691 0.73025,0.77258 1.37583,1.47108 0.65616,0.68791 1.143,1.17475 0,-0.70909 0,-1.43933 0,-0.74083 -0.0106,-1.44992 -0.0106,-0.71966 -0.0317,-1.39699 -0.0106,-0.68792 -0.0423,-1.30175 0.1905,0.0529 0.35983,0.0529 0.14817,0 0.33867,-0.0529 -0.0212,0.23284 -0.0529,0.6985 -0.0318,0.46567 -0.0635,0.99483 -0.0212,0.52917 -0.0423,1.03716 -0.0106,0.508 -0.0106,0.81492 0,0.40216 0,0.99483 0.0106,0.59266 0.0106,1.18533 0.0106,0.58208 0.0106,1.05833 0.0106,0.47625 0.0106,0.65616 z"
         style="font-size:10.5833px;font-family:'Optima LT';-inkscape-font-specification:'Optima LT, Normal';fill:#2b3e63"
         id="path530" />
      <path
         d="m 199.07862,182.42506 q -0.15875,-0.1905 -0.40217,-0.381 -0.23283,-0.1905 -0.52916,-0.32809 -0.28575,-0.14816 -0.64558,-0.23283 -0.34925,-0.0952 -0.75142,-0.0952 -0.65616,0 -1.22766,0.20109 -0.56091,0.20108 -0.98425,0.62441 -0.41274,0.41275 -0.65616,1.05833 -0.23283,0.635 -0.23283,1.51341 0,0.78317 0.21166,1.40758 0.21167,0.61383 0.61383,1.04775 0.41275,0.42333 0.99484,0.65616 0.58208,0.23283 1.33349,0.23283 0.45508,0 0.93133,-0.0847 0.48683,-0.0847 0.762,-0.254 0.0106,-0.3175 0.0106,-0.635 0.0106,-0.3175 0.0106,-0.64558 0,-0.37042 -0.0212,-0.74083 -0.0106,-0.37042 -0.0318,-0.70908 0.23283,0.0529 0.508,0.0529 0.11641,0 0.23283,-0.0106 0.11642,-0.0106 0.22225,-0.0423 -0.0212,0.24341 -0.0318,0.77258 -0.0106,0.51858 -0.0106,1.37583 0,0.21166 0,0.43391 0.0106,0.21167 0.0106,0.42333 -0.22225,0.0847 -0.56092,0.16934 -0.32808,0.0847 -0.70908,0.15875 -0.37041,0.0847 -0.75141,0.127 -0.37042,0.0529 -0.67733,0.0529 -0.94192,0 -1.70391,-0.24341 -0.75142,-0.24342 -1.28058,-0.71967 -0.52917,-0.47625 -0.81492,-1.18533 -0.28575,-0.70908 -0.28575,-1.64041 0,-0.89958 0.29634,-1.59808 0.29633,-0.70908 0.83608,-1.19591 0.53975,-0.48683 1.30174,-0.74083 0.762,-0.254 1.70391,-0.254 0.53975,0 0.9525,0.0635 0.42333,0.0529 0.74083,0.14817 0.32808,0.0847 0.5715,0.20108 0.24342,0.10583 0.43392,0.20108 -0.0847,0.14817 -0.15875,0.381 -0.0635,0.23283 -0.0847,0.43392 z"
         style="font-size:10.5833px;font-family:'Optima LT';-inkscape-font-specification:'Optima LT, Normal';fill:#2b3e63"
         id="path532" />
    </g>
    <rect
       style="fill:#7088b8;stroke-width:0.264583"
       id="rect861"
       width="106.97324"
       height="1.2004478"
       x="93.552658"
       y="139.13878" />
    <rect
       style="fill:#7088b8;stroke-width:0.264583"
       id="rect863"
       width="106.97324"
       height="1.2004478"
       x="93.552658"
       y="177.81502" />
  </g>
</svg>
